<?xml version="1.0" standalone="no"?><!DOCTYPE svg PUBLIC "-//W3C//DTD SVG 1.1//EN" "http://www.w3.org/Graphics/SVG/1.1/DTD/svg11.dtd"><svg t="1744289292913" class="icon" viewBox="0 0 1024 1024" version="1.1" xmlns="http://www.w3.org/2000/svg" p-id="19690" xmlns:xlink="http://www.w3.org/1999/xlink" width="200" height="200"><path d="M196.608 1010.176H108.544c-44.032 0-79.872-35.84-79.872-79.872v-385.536c0-44.032 35.84-79.872 79.872-79.872h88.576c44.032 0 79.872 35.84 79.872 79.872v385.536c-0.512 44.032-36.352 79.872-80.384 79.872z m-88.064-483.328c-9.728 0-17.408 8.192-17.408 17.92v385.536c0 9.728 7.68 17.408 17.408 17.408h88.576c9.728 0 17.408-7.68 17.408-17.408v-385.536c0-9.728-7.68-17.408-17.408-17.92H108.544z m816.128 483.328h-88.576c-44.032 0-79.872-35.84-79.872-79.872V381.952c0-44.032 35.84-79.872 79.872-79.872h88.576c44.032 0 79.872 35.84 79.872 79.872v548.352c0 44.032-35.84 79.872-79.872 79.872zM836.608 364.544c-9.728 0-17.408 7.68-17.408 17.408v548.352c0 9.728 7.68 17.408 17.408 17.408h88.576c9.728 0 17.408-7.68 17.408-17.408V381.952c0-9.728-7.68-17.408-17.408-17.408h-88.576z m-275.968 645.632H472.576c-44.032 0-79.872-35.84-79.872-79.872V96.768c0-44.032 35.84-79.872 79.872-79.872h88.064c44.032 0 79.872 35.84 79.872 79.872v833.536c0 44.032-35.84 79.872-79.872 79.872zM472.576 79.36c-9.728 0-17.408 8.192-17.408 17.92v833.536c0 9.728 7.68 17.408 17.408 17.408h88.064c9.728 0 17.408-7.68 17.408-17.408V96.768c0-9.728-7.68-17.408-17.408-17.92 0 0.512-88.064 0.512-88.064 0.512z" fill="#ffffff" p-id="19691"></path></svg>