<?xml version="1.0" standalone="no"?><!DOCTYPE svg PUBLIC "-//W3C//DTD SVG 1.1//EN" "http://www.w3.org/Graphics/SVG/1.1/DTD/svg11.dtd"><svg t="1744289122161" class="icon" viewBox="0 0 1024 1024" version="1.1" xmlns="http://www.w3.org/2000/svg" p-id="7425" xmlns:xlink="http://www.w3.org/1999/xlink" width="200" height="200"><path d="M971.584282 923.184264l42.426814 42.563345a34.132594 34.132594 0 0 1-48.331752 48.195222l-42.324417-42.495079A254.868078 254.868078 0 0 1 767.98336 1023.977814a254.799813 254.799813 0 0 1-142.435314-43.245997A170.662969 170.662969 0 0 1 341.325938 853.314845V204.795563H307.193344a102.397781 102.397781 0 1 1 0-204.795563h409.591126a102.397781 102.397781 0 0 1 0 204.795563h-34.132594v321.767961a255.994453 255.994453 0 0 1 288.932406 396.62074z m-397.712983 11.70748A254.970476 254.970476 0 0 1 511.988907 767.98336a255.618995 255.618995 0 0 1 102.397781-204.795562V443.723719h-204.795562v409.591126a102.397781 102.397781 0 0 0 164.280173 81.576899zM307.193344 136.530375h409.591126a34.132594 34.132594 0 0 0 0-68.265187H307.193344a34.132594 34.132594 0 1 0 0 68.265187z m102.397782 238.928157h204.795562V204.795563h-204.795562v170.662969z m358.392234 580.254094a187.729266 187.729266 0 1 0 0-375.458532 187.729266 187.729266 0 0 0 0 375.458532z m0-341.325938a34.132594 34.132594 0 0 1 0 68.265188 85.331484 85.331484 0 0 0-85.331484 85.331484 34.132594 34.132594 0 0 1-68.265188 0 153.596672 153.596672 0 0 1 153.596672-153.596672z" fill="#A9C1C6" p-id="7426"></path></svg>