<?xml version="1.0" standalone="no"?><!DOCTYPE svg PUBLIC "-//W3C//DTD SVG 1.1//EN" "http://www.w3.org/Graphics/SVG/1.1/DTD/svg11.dtd"><svg t="1744289320414" class="icon" viewBox="0 0 1077 1024" version="1.1" xmlns="http://www.w3.org/2000/svg" p-id="23151" xmlns:xlink="http://www.w3.org/1999/xlink" width="210.3515625" height="200"><path d="M587.790296 752.927735a26.837771 26.837771 0 0 1-24.250998-15.1434l-78.142104-160.541606-173.475471-59.280217a26.999444 26.999444 0 0 1-9.646508-45.214638l124.434565-116.027552 8.514794-186.624901a26.945553 26.945553 0 0 1 40.041092-22.257027l158.008724 88.489197 197.995924-65.531586a27.053335 27.053335 0 0 1 34.166962 33.789724l-56.9629 177.625086 106.6505 149.54782a26.999444 26.999444 0 0 1-18.322976 42.35841l-177.571196 24.35878-110.045639 143.835362a26.999444 26.999444 0 0 1-21.394769 10.616548zM371.902524 481.478233l141.518046 48.340322a27.161118 27.161118 0 0 1 15.520638 13.688341l63.968743 131.386517 90.267603-117.967631a26.945553 26.945553 0 0 1 17.784065-10.293201l144.428165-19.831928-88.65087-124.272891a26.945553 26.945553 0 0 1-3.718486-23.87376l44.891292-140.062985-158.924873 52.59772a26.406642 26.406642 0 0 1-21.610333-2.101753L487.013927 216.172317l-7.005843 154.020782a26.999444 26.999444 0 0 1-8.514795 18.430758L371.902524 481.478233z" fill="#666666" p-id="23152"></path><path d="M138.877381 1013.922363c-21.502551 0-41.711716-8.353121-56.962899-23.604304l-4.149616-4.041833A79.758837 79.758837 0 0 1 53.891106 929.151653c-0.053891-21.556443 8.29923-41.87339 23.604305-57.232355l295.107698-297.15556a26.945553 26.945553 0 1 1 38.262685 37.99323l-295.161589 297.209451a26.729989 26.729989 0 0 0 0 38.047121l4.203506 4.149615c5.119655 5.119655 10.185419 9.969855 19.077452 7.868102 7.221408 0 14.011688-2.856229 19.077452-7.921993l290.257498-292.30536a26.945553 26.945553 0 1 1 38.262686 37.99323l-290.31139 292.30536c-15.358965 15.358965-34.382526 25.598275-57.394028 23.819869zM364.788898 323.361727a27.215009 27.215009 0 0 1-10.562656-2.155644l-90.644841-38.586032a26.945553 26.945553 0 1 1 21.125313-49.579818l90.644841 38.532141a26.945553 26.945553 0 0 1-10.562657 51.789353zM642.920898 145.521076a26.945553 26.945553 0 0 1-26.837771-30.23291L627.292477 23.727176a26.945553 26.945553 0 0 1 53.513869 6.520824l-11.20935 91.56099a26.945553 26.945553 0 0 1-26.676098 23.712086zM1044.786878 393.474056h-97.003992a26.945553 26.945553 0 0 1 0-53.891106h97.003992a26.945553 26.945553 0 0 1 0 53.891106zM806.642079 796.579531a26.78388 26.78388 0 0 1-23.87376-14.550598l-47.478065-91.345425a26.945553 26.945553 0 1 1 47.801411-24.8438l47.478065 91.345425a26.945553 26.945553 0 0 1-23.927651 39.394398z" fill="#ffffff" p-id="23153"></path></svg>