<?xml version="1.0" standalone="no"?><!DOCTYPE svg PUBLIC "-//W3C//DTD SVG 1.1//EN" "http://www.w3.org/Graphics/SVG/1.1/DTD/svg11.dtd"><svg t="1744289169619" class="icon" viewBox="0 0 1024 1024" version="1.1" xmlns="http://www.w3.org/2000/svg" p-id="9380" xmlns:xlink="http://www.w3.org/1999/xlink" width="200" height="200"><path d="M789.077333 732.288h43.221334c15.146667 0 27.434667 12.373333 27.434666 27.434667a27.52 27.52 0 0 1-27.434666 27.434666h-70.656a27.349333 27.349333 0 0 1-19.370667-8.106666 27.178667 27.178667 0 0 1-8.064-19.328V674.986667a27.434667 27.434667 0 0 1 54.869333 0v57.258666zM514.816 981.333333H176.810667c-72.192 0-130.986667-59.392-130.986667-132.437333V175.104C45.781333 102.058667 104.576 42.666667 176.768 42.666667h540.885333c72.234667 0 130.944 59.392 130.944 132.437333v293.546667a38.528 38.528 0 1 1-77.098666 0v-293.546667c0-30.592-24.192-55.338667-53.845334-55.338667H176.810667c-29.696 0-53.845333 24.832-53.845334 55.338667v673.792c0 30.592 24.234667 55.338667 53.845334 55.338667h338.090666A38.528 38.528 0 1 1 514.816 981.333333z m112.298667-751.189333a39.253333 39.253333 0 0 1 39.168 39.168 39.253333 39.253333 0 0 1-39.168 39.210667H265.472a39.253333 39.253333 0 0 1-39.168-39.210667 39.253333 39.253333 0 0 1 39.168-39.168h361.642667z m0 182.357333a39.253333 39.253333 0 0 1 39.168 39.168 39.253333 39.253333 0 0 1-39.168 39.168H265.472a39.253333 39.253333 0 0 1-39.168-39.168 39.253333 39.253333 0 0 1 39.168-39.168h361.642667z m-151.424 182.186667c21.504 0 39.125333 17.664 39.210666 39.253333a39.253333 39.253333 0 0 1-39.210666 39.168H265.557333a39.253333 39.253333 0 0 1-39.168-39.210666 39.253333 39.253333 0 0 1 39.168-39.168h210.133334z m286.293333 371.029333a214.826667 214.826667 0 0 1-152.832-63.317333 214.826667 214.826667 0 0 1-63.317333-152.874667c0-57.728 22.442667-112.042667 63.317333-152.874666A214.826667 214.826667 0 0 1 762.026667 533.333333c57.728 0 112.042667 22.485333 152.874666 63.317334a214.826667 214.826667 0 0 1 63.317334 152.874666 214.826667 214.826667 0 0 1-63.317334 152.874667 214.826667 214.826667 0 0 1-152.874666 63.317333z m0-365.397333a149.376 149.376 0 0 0-149.162667 149.205333c0 82.346667 66.986667 149.205333 149.205334 149.205334a149.461333 149.461333 0 0 0 149.205333-149.205334 149.333333 149.333333 0 0 0-149.205333-149.205333z" fill="#3F454B" p-id="9381"></path></svg>