<?xml version="1.0" standalone="no"?><!DOCTYPE svg PUBLIC "-//W3C//DTD SVG 1.1//EN" "http://www.w3.org/Graphics/SVG/1.1/DTD/svg11.dtd"><svg t="1734595211313" class="icon" viewBox="0 0 1024 1024" version="1.1" xmlns="http://www.w3.org/2000/svg" p-id="5384" xmlns:xlink="http://www.w3.org/1999/xlink" width="256" height="256"><path d="M1015.641741 902.287109L825.078041 710.391425c120.830542-176.739867 103.012757-420.346926-53.452355-577.478029a450.759559 450.759559 0 0 0-639.224284 0c-176.534869 177.149862-176.534869 464.481394 0 641.682254a450.759559 450.759559 0 0 0 580.75499 49.458403l189.642711 191.587688a28.15966 28.15966 0 0 0 39.627522 0.409995l73.67611-73.983107a28.415657 28.415657 0 0 0-0.459994-39.78152zM453.524526 809.000235c-194.557652 0-352.251748-158.359089-352.251748-353.685731 0-195.324642 157.694097-353.684731 352.251748-353.684731s352.302748 158.360089 352.302747 353.685731-157.694097 353.685731-352.251748 353.685731z m171.005936-429.613814c0 11.57086 2.969964 22.988723 8.703895 33.0746l-69.529161 71.423138a66.713195 66.713195 0 0 0-65.535209-0.869989l-70.859145-71.679135a67.379187 67.379187 0 0 0-59.289284-99.4288 67.379187 67.379187 0 0 0-58.572293 100.605786l-70.655147 72.08913a67.379187 67.379187 0 0 0-99.838795 59.084287c0 37.27255 30.104637 67.480185 67.224188 67.480185a67.379187 67.379187 0 0 0 59.238285-99.530799l71.167141-72.601123a66.713195 66.713195 0 0 0 64.152226-0.613993l70.553148 71.371139a67.379187 67.379187 0 0 0 58.87929 100.094791 67.379187 67.379187 0 0 0 59.749278-98.506811l70.399151-72.345126c9.727883 5.170938 20.479753 7.884905 31.48762 7.884905 37.171551 0 67.276188-30.207635 67.276188-67.583185 0-37.222551-30.104637-67.481185-67.276188-67.481185-37.119552 0-67.224189 30.207635-67.224189 67.532185z" fill="#ffffff" p-id="5385"></path></svg>