<?xml version="1.0" standalone="no"?><!DOCTYPE svg PUBLIC "-//W3C//DTD SVG 1.1//EN" "http://www.w3.org/Graphics/SVG/1.1/DTD/svg11.dtd"><svg t="1734595675347" class="icon" viewBox="0 0 1068 1024" version="1.1" xmlns="http://www.w3.org/2000/svg" p-id="12882" xmlns:xlink="http://www.w3.org/1999/xlink" width="267" height="256"><path d="M726.314667 746.666667h-108.437334a20.821333 20.821333 0 0 1-20.330666-21.333334V384a20.821333 20.821333 0 0 1 20.330666-21.333333h108.437334A20.821333 20.821333 0 0 1 746.666667 384v341.333333a20.821333 20.821333 0 0 1-20.330667 21.333334z m-88.106667-42.666667h67.776V405.333333h-67.776v298.666667z m-103.893333 42.666667h-108.437334a20.693333 20.693333 0 0 1-20.330666-21.034667v-192.853333a20.693333 20.693333 0 0 1 20.330666-21.034667h108.437334a20.693333 20.693333 0 0 1 20.330666 21.034667v192.853333a20.693333 20.693333 0 0 1-20.330666 21.034667z m-88.106667-42.069334h67.776v-150.762666h-67.776v150.784zM342.336 746.666667h-108.458667a20.501333 20.501333 0 0 1-20.330666-20.693334v-86.698666a20.501333 20.501333 0 0 1 20.330666-20.608h108.437334a20.501333 20.501333 0 0 1 20.330666 20.693333v86.72a20.501333 20.501333 0 0 1-20.330666 20.693333z m-88.106667-41.386667h67.776v-45.333333h-67.797333v45.354666zM673.088 268.8l-82.496 82.581333a21.333333 21.333333 0 1 1-30.165333-30.144l45.098666-45.141333A320.512 320.512 0 0 0 315.733333 535.466667a21.333333 21.333333 0 0 1-20.906666 17.28 22.122667 22.122667 0 0 1-4.053334-0.384 21.333333 21.333333 0 0 1-16.896-25.002667 363.029333 363.029333 0 0 1 333.632-293.909333l-47.082666-47.125334a21.333333 21.333333 0 1 1 30.165333-30.144l82.496 82.581334a21.333333 21.333333 0 0 1 0 30.037333zM490.666667 981.333333a490.666667 490.666667 0 1 1 490.666666-490.666666 491.221333 491.221333 0 0 1-490.666666 490.666666z m0-932.266666A441.6 441.6 0 1 0 932.266667 490.666667 442.090667 442.090667 0 0 0 490.666667 49.066667z" fill="#ffffff" p-id="12883"></path></svg>